<svg clip-rule="evenodd" fill-rule="evenodd" stroke-miterlimit="2.613" viewBox="0 0 536 187" xmlns="http://www.w3.org/2000/svg"><g transform="translate(-1876.62 -2044.5)"><g fill="#f15a29" fill-rule="nonzero"><path d="m0 .954-63.296-.048-.025 1.697 46.605 1.854c8.847.338 17.435.797 25.745 3.623 17.042 5.701 30.624 17.303 34.616 31.676 4.294 15.4-5.562 30.377-24.126 31.669 15.726 4.614 29.139 14.573 32.702 27.412 4.644 16.656-3.751 25.068-17.906 28.154 23.546.375 41.972-7.536 35.703-30.081-3.563-12.827-17.296-22.592-32.913-26.85 18.347-1.371 28.402-18.848 23.534-34.073-5.055-15.865-17.852-25.714-34.894-31.397-8.316-2.833-16.892-3.298-25.745-3.636" transform="matrix(1.31117 0 0 -1.31117 1996.24 2223.12)"/><path d="m0 .954-29.9-1.419c-.012.767-.042.996-.127 1.733l75.496 21.783.048 1.214-76.534-18.413c-.236.719-.302.918-.622 1.6l80.381 44.636-.513 1.238-82.205-42.033c-.508.707-.429.737-.997 1.359l95.552 90.092-.834 1.015-98.347-88.045c-.453.332-.701.598-1.196.894l69.788 101.802-1.238.344-72.735-100.274c-.405.133-.809.265-1.214.38l39.931 98.469-1.057.115-45.028-97.714c-.556 0-1.111-.012-1.679-.048l-.38-.031 29.012 104.81 54.195-.169c25.636 1.467 45.886-5.459 39.231-29.399-3.576-12.827-16.976-22.798-32.618-27.061l-.09-.338c18.564-1.293 29.012-16.234 24.736-31.64-3.998-14.361-18.275-25.575-35.317-31.27-8.322-2.833-16.91-3.304-25.739-3.63" transform="matrix(1.31117 0 0 -1.31117 1952.69 2212.66)"/><path d="m0 .954c-1.83-7.005-5.043-7.392-9.053-7.392h-7.814c-6.535 0-7.066 2.802-5.744 7.392h7.731c-.749-2.385-1.698-4.565 2.409-4.565 2.712 0 3.618.652 4.662 4.432zm67.288-36.482-5.87 7.585-.507-1.921c-1.504-5.815-1.431-8.201 2.132-8.201 1.981 0 3.249.773 4.245 2.537zm-4.463 11.196 5.864-7.633.58 2.077c1.184 4.632 2.114 7.845-2.101 7.881-2.138.03-3.425-.839-4.343-2.325zm38.609 3.805 1.57 6.679h-21.946l-8.298-32.279h-7.422l1.956 7.041c-2.119-2.252-5.846-2.959-8.829-2.959-8.086 0-6.77 7.779-5.538 12.55 1.202 4.668 3.69 11.492 11.547 11.492 2.82 0 5.931-.761 7.036-2.723l1.757 6.878h-17.978l1.111 3.545h52.758l-6.48 8.02 5.399 3.962 6.915-11.982h2.101l-5.544 14.573 6.535 2.898 3.817-17.471h49.817l-1.112-3.545h-4.161l-8.303-32.315h-7.417l8.292 32.315h-6.425l-2.579-8.207h-10.369c-3.376 0-4.3-4.04-5.683-9.995-1.661-7.168-2.947-11.486 1.709-11.486.326 0 .845.126 1.491.35-.489 4.414 2.042 9.554 7.26 9.554 4.777 0 4.783-2.609 4.13-4.916-.906-3.249-2.572-4.994-5.785-5.894 1.655-3.11 5.64-3.358 5.64-3.358l-7.971-4.384c-1.842 2.174-2.935 4.076-3.255 6.298-1.963-.519-4.137-.67-5.78-.67-9.566 0-7.972 9.367-6.359 15.69 1.649 6.516 4.493 12.229 12.356 12.229 2.82 0 6.003-.181 6.003-.181l1.401 4.97h-20.889l-8.304-32.315h-7.416l8.297 32.315h-5.942l-2.959-11.384h-7.441c.635 2.488-.525 3.418-3.689 3.418-2.863 0-3.709-.404-4.892-4.487-.846-3.49.157-4.233 3.611-4.149h5.925c4.348 0 5.139-1.624 3.587-8.098-1.908-7.283-5.453-7.706-9.904-7.706h-8.673c-7.579 0-7.857 3.382-6.147 8.902h8.557c-.785-2.911-2.5-5.78 2.464-5.78 3.008 0 4.016.731 5.151 4.916.943 3.014 1.178 4.584-3.388 4.584 0 0-4.058.054-5.99.054-5.085 0-4.276 4.306-3.358 7.869 1.812 6.571 3.092 7.428 10.665 7.428 4.656 0 6.716-.519 7.368-2.246zm-204.921-17.598c2.639 0 3.762 2.433 5.266 8.237 1.184 4.632 2.065 7.833-1.147 7.833-3.376 0-4.143-3.201-5.327-7.833-1.498-5.804-1.631-8.237 1.208-8.237zm1.377-7.996c1.95 7.048 1.908 7.035 1.908 7.035zm-25.739 10.882-5.925 7.676c-.205-.718-.41-1.479-.616-2.301-1.503-5.815-1.431-8.201 2.126-8.201 2.09 0 3.382.864 4.415 2.826zm-4.439 11.185 5.798-7.525.459 1.691c1.183 4.632 2.113 7.845-2.102 7.881-2.005.03-3.255-.743-4.155-2.047zm5.707 13.751-6.48 8.02 5.417 3.962 6.909-11.982h2.084l-5.52 14.573 6.528 2.898 3.817-17.471h43.222l-1.105-3.545h-15.013l-1.854-7.494c2.011 2.252 4.499 3.11 7.488 3.11 8.075 0 6.311-7.64 5.079-12.399-1.184-4.674-3.231-11.42-11.082-11.42-1.552 0-2.953.302-3.75 1.027l.556 2.089c.205-.024.501-.193.73-.193 3.376 0 4.3 4.046 5.49 8.672 1.498 5.81 1.618 8.238-1.208 8.238-2.355 0-3.738-1.752-5.067-6.208l-4.402-17.701-7.368.006 1.908 7.035c-2.126-2.252-4.493-3.019-7.47-3.019-8.087 0-6.245 8.056-5.019 12.821 1.196 4.668 3.159 11.203 11.016 11.203 2.826 0 4.589-.683 5.695-2.645l1.733 6.878h-19.99l-8.298-32.279h-7.428l1.957 7.041c-2.132-2.252-5.84-2.959-8.841-2.959-8.069 0-6.474 8.25-5.248 13.009 1.207 4.662 3.406 11.033 11.257 11.033 2.832 0 5.96-.761 7.059-2.723l1.74 6.878h-18.088l1.105 3.545zm75.774-35.794h-11.082l.942 3.654h9.65c2.446 0 6.058 1.377 7.308 6.22.767 3.068-.55 6.613-4.952 6.613h-7.253l.96 4.004h8.406c2.978 0 5.26 2.542 6.142 5.888.652 2.543.501 5.949-3.925 5.949h-9.017l.936 3.653h10.847c5.501 0 11.474-2.367 9.874-8.962-1.184-4.916-3.714-7.38-9.506-8.304 5.997-.821 7.181-4.807 5.973-9.566-2.265-8.756-11.583-9.149-15.303-9.149zm66.835 32.249h-5.87l-4.578-17.628c-.525-2.054-.471-3.569 2.017-3.569 2.494 0 3.443 2.349 3.968 4.414zm-44.044 3.545h66.407l-1.111-3.545h-13.431l-2.223-8.509c2.072 2.023 4.578 2.935 7.495 2.935 3.714 0 6.504-1.836 5.689-5.031l-4.771-18.552h-7.815l4.101 15.931c.531 2.072.501 3.672-1.993 3.672-1.8 0-3.032-1.51-3.787-3.122l-1.938-7.458c-.381-1.516-2.561-10.629-2.772-12.145h-8.081l2.47 9.898c-2.186-2.065-4.475-2.802-7.416-2.802-3.714 0-6.504 1.848-5.671 5.049l5.218 20.134h-6.178l-8.31-32.315h-7.422l8.304 32.315h-5.876l-8.286-32.315h-7.422l4.366 16.976h-6.027l1.021 3.617h5.936l3.02 11.722h-4.62zm-82.833 8.805h7.066l-1.576-5.888h-7.066zm107.213-42.25h7.054l-1.582-5.87h-7.066zm89.628-5.791h7.059l-1.594-5.882h-7.054z" transform="matrix(.868073 0 0 -.868073 2250.47 2055.93)"/><path d="m0 .954h5.037c4.354 0 5.248-2.228 4.475-5.9-1.226-5.774-5.363-5.846-7.205-5.846h-4.795zm3.599 16.898h5.327c2.911 0 4.499-2.247 3.853-5.272-.858-4.011-3.756-5.267-5.647-5.267h-5.779zm-.803-34.985c3.666 0 12.876.453 15.092 10.931 1.214 5.652.447 9.626-5.496 10.478l.018.12c4.892.912 7.972 4.349 8.987 9.101 1.878 8.812-3.165 10.714-9.766 10.714h-15.333l-8.781-41.344z" transform="matrix(.873805 0 0 -.873805 2134.91 2137.32)"/><path d="m0 .954c-.67-3.146-1.274-9.566-6.039-9.566-2.633 0-2.452 2.53-2.011 4.578 1.093 5.175 4.004 4.819 8.05 4.988zm9.143 5.84c1.118 5.278.731 9.681-9.505 9.681-3.098 0-5.84-.514-7.966-1.89-2.162-1.317-3.738-3.558-4.469-7.036h7.899c.495 2.271 1.172 4.402 3.968 4.402 2.929 0 2.887-1.781 2.361-4.251l-.465-2.217c-7.47.109-14.953-.283-16.976-9.849-1.081-5.037.091-9.222 5.701-9.222 3.491 0 6.148 1.431 8.503 4.402h.115l-.477-3.822h7.507c.199 1.769.356 3.605.736 5.374z" transform="matrix(.873805 0 0 -.873805 2166.85 2140.92)"/><path d="m0 .954h-8.074l-6.136-28.903h8.068l4.24 19.923c.543 2.573 1.425 4.584 3.998 4.584 2.584 0 2.609-2.011 2.065-4.584l-4.24-19.923h8.075l4.934 23.178c.851 4.004-2.041 6.305-5.876 6.305-3.044 0-5.405-.912-7.561-3.497h-.109z" transform="matrix(.873805 0 0 -.873805 2187.33 2127.87)"/><path d="m0 .954 3.346 15.744h.114l4.161-15.744h9.114l-5.714 16.028 10.925 12.876h-8.412l-9.862-12.181h-.109l5.236 24.621h-8.086l-8.781-41.344z" transform="matrix(.873805 0 0 -.873805 2204.72 2153.13)"/><path d="m0 .954c-2.977 0-3.316 1.89-1.443 10.714 1.274 6.015 2.21 9.046 5.646 9.046 3.437 0 3.08-3.031 1.8-9.046-1.878-8.824-3.026-10.714-6.003-10.714zm-1.081-5.151c10.412 0 13.135 6.353 15.068 15.406 1.667 7.905 1.956 14.657-8.685 14.657-10.659 0-13.237-6.752-14.916-14.657-1.921-9.053-1.897-15.406 8.533-15.406" transform="matrix(.873805 0 0 -.873805 2238.08 2149.13)"/><path d="m0 .954c-.96.061-1.878.109-2.844.109-9.856 0-10.098-4.403-11.807-12.713h-3.666l-1.057-4.97h3.606l-5.085-23.933h8.074l5.079 23.933h3.787l1.056 4.97h-3.78l.743 3.497c.628 2.929 1.57 4.191 4.789 3.956z" transform="matrix(.873805 0 0 -.873805 2269.01 2116.85)"/><path d="m0 .954h5.037c4.348 0 5.248-2.228 4.475-5.9-1.238-5.774-5.375-5.846-7.205-5.846h-4.807zm3.587 16.898h5.321c2.923 0 4.511-2.247 3.865-5.272-.846-4.011-3.757-5.267-5.641-5.267h-5.785zm-.797-34.985c3.66 0 12.87.453 15.098 10.931 1.202 5.652.441 9.626-5.502 10.478l.018.12c4.886.912 7.966 4.349 8.987 9.101 1.866 8.812-3.165 10.714-9.76 10.714h-15.345l-8.781-41.344z" transform="matrix(.873805 0 0 -.873805 2282.58 2137.32)"/><path d="m0 .954c-.682-3.146-1.286-9.566-6.039-9.566-2.633 0-2.44 2.53-1.993 4.578 1.087 5.175 3.992 4.819 8.032 4.988zm9.149 5.84c1.118 5.278.737 9.681-9.517 9.681-3.086 0-5.828-.514-7.954-1.89-2.174-1.317-3.738-3.558-4.481-7.036h7.905c.489 2.271 1.172 4.402 3.968 4.402 2.923 0 2.887-1.781 2.367-4.251l-.477-2.217c-7.476.109-14.947-.283-16.976-9.849-1.063-5.037.103-9.222 5.707-9.222 3.497 0 6.154 1.431 8.503 4.402h.115l-.471-3.822h7.489c.217 1.769.38 3.605.754 5.374z" transform="matrix(.873805 0 0 -.873805 2314.52 2140.92)"/><path d="m0 .954-6.136-28.903h8.075l3.345 15.738c.604 2.862 1.595 6.993 8.6 6.528l1.528 7.217c-3.261 0-6.214-.972-8.413-4.294h-.114l.791 3.714z" transform="matrix(.873805 0 0 -.873805 2327.95 2127.87)"/><path d="m0 .954c-2.971 0-3.322 1.89-1.437 10.714 1.274 6.015 2.21 9.046 5.646 9.046 3.437 0 3.074-3.031 1.794-9.046-1.878-8.824-3.014-10.714-6.003-10.714zm-1.081-5.151c10.412 0 13.129 6.353 15.056 15.406 1.691 7.905 1.974 14.657-8.679 14.657-10.647 0-13.231-6.752-14.91-14.657-1.921-9.053-1.891-15.406 8.533-15.406" transform="matrix(.873805 0 0 -.873805 2347.67 2149.13)"/><path d="m0 .954c-2.911 0-2.772 3.032-1.238 10.315 1.226 5.779 2.023 9.796 5.526 9.796 3.309 0 2.403-4.017 1.183-9.796-1.54-7.283-2.717-10.315-5.471-10.315zm10.412-4.396 8.787 41.338h-8.081l-3.231-15.177h-.096c-1.148 2.47-2.972 3.322-5.889 3.322-8.134 0-9.807-8.993-11.051-14.82-1.263-5.973-3.527-15.243 4.837-15.243 3.092 0 5.538.972 7.621 3.78h.103l-.664-3.2z" transform="matrix(.873805 0 0 -.873805 2370.24 2149.28)"/><path d="m0 .954c-.664-3.146-1.286-9.566-6.039-9.566-2.627 0-2.446 2.53-2.005 4.578 1.099 5.175 3.998 4.819 8.044 4.988zm9.155 5.84c1.118 5.278.737 9.681-9.517 9.681-3.092 0-5.828-.514-7.96-1.89-2.168-1.317-3.738-3.558-4.469-7.036h7.899c.483 2.271 1.16 4.402 3.974 4.402 2.917 0 2.887-1.781 2.367-4.251l-.489-2.217c-7.458.109-14.947-.283-16.982-9.849-1.069-5.037.109-9.222 5.719-9.222 3.491 0 6.148 1.431 8.485 4.402h.115l-.465-3.822h7.513c.193 1.769.35 3.605.749 5.374z" transform="matrix(.873805 0 0 -.873805 2397.78 2140.92)"/></g><g transform="matrix(.273117 0 0 .273117 1346.39 1708.47)"><path d="m3398.22 1698.46h482.92v184.81h-482.92z" fill="#152b75" fill-rule="nonzero"/><path d="m0 .954-.024 6.933 33.239-.03 11.759-.586 10.689-1.455 9.343-1.957 9.747-2.851 10.26-3.925 10.001-4.91 7.332-4.433 8.322-6.009 7.204-6.317 6.486-6.848 5.218-6.722 4.862-7.742 3.871-7.917 2.748-7.585 2.089-8.66.991-7.918.127-8.479-.816-8.4-1.624-7.718-2.494-7.736-3.564-8.051-4.607-8.171-5.369-7.893-6.341-7.664-7.151-7.102-7.941-6.365-7.996-5.121-8.552-4.252-8.781-3.333-9.01-2.494-9.288-1.734-14.687-1.322-10.968-.665-12.549-.265-14.711.036-7.791-.006.048 33.463-.024 39.732 3.871.012 38.283.054 3.611.278c23.221 5.628 22.786 33.408-1.172 37.026l-4.831.151-38.306-.054-1.504.006.024 27.544z" fill="#fff" transform="matrix(.419046 0 0 -.419046 3493.81 1760.88)"/><path d="m0-181.676h99.676v182.63h-99.676z" fill="#fff" transform="matrix(.419046 0 0 -.419046 3447.89 1757.97)"/><path d="m0 .954-40.009-.024.072 82.441.103.887.284.206 2.264.531 1.142.586.996.815.785.966.489.973.453 1.552.157 1.117-.102 1.425-.538 2.011-.863 1.679-2.114 2.676-2.06 2.723-1.274 2.241-.815 1.981-.302 1.479-.127 1.401.127 1.601.38 1.63.508 1.22 1.171 1.576 1.552 1.504 1.323.894 1.733.839 1.015.459.229.302-.072.381-1.528 2.24-.689 1.607-.253 1.014-.181 1.377-.127 1.655.205 1.751.411 1.353.682 1.576 1.425 2.319.894 1.093 1.045.967 1.244.996 1.607.991 1.932.791 1.806.483 1.962.356 1.655.127 2.724-.254 1.981-.229.356.151.308.435.713 1.552.912 1.576 1.455 1.806 1.655 1.582 2.083 1.449 1.631.888 1.479.586 3.08.737 3.002.356 3.388-.302.833-.157 1.202-.302 1.854-.61 2.241-1.045 1.654-1.044 1.806-1.498 1.099-1.148 1.474-2.059 1.044-1.939.508-1.068.308-.151h.712l3.533.791 2.271.199 1.933-.048 1.908-.332 2.216-.761 1.782-.943 1.014-.742 1.045-.967 1.601-2.162.561-.99.435-1.329.381-1.648.181-1.885-.206-2.723-.513-1.758-.96-1.781-2.09-2.929-.024-.357.254-.277 1.274-.254 1.449-.254 1.093-.41 1.577-.912 1.503-1.299.864-1.099.839-1.425.562-1.727.151-1.148-.103-2.137-.658-2.06-1.123-2.343-1.22-1.836-1.83-2.645-1.576-2.899-.894-2.597-.151-2.065.356-1.679.689-1.625.634-.869.942-1.069 1.196-.815 1.244-.477 1.576-.387.236-.278.102-1.196.049-2.089-.049-79.868-38.614-.024z" fill="#fff" transform="matrix(.419046 0 0 -.419046 3468.06 1828.18)"/><path d="m0 .954-.03.242-.024.175-.767.815-1.172.84-1.854 1.376-.918 1.094-1.014 1.781-.23.278-.435.054-3.104-.513-1.552-.024-3.642.839-.736.278-.157.332.054.356.918 1.323-.03.181-.278.23-.888.302-2.343.918-1.884.332-.332.181-.206.326.127.332 1.069.942 1.178.586 2.005.815.283.23.025.181-.049.175-2.572 3.002-1.196 1.805-.538.997-1.117 1.655-.332.712.079.405.428.561.26.991.254.254.809.229.537.23.538.712.278.181 1.449-.054.381.103.664.688.356.103.556-.206.386.025.556.434.537.254h.459l.689-.278.38-.054.357.127.531.483.459.26 1.123-.333.357.103.61.658.301.942-.277 2.011-.127.918-.23 3.056-.61 3.509-.181 2.422-.151 1.908-.102 1.703-.302 2.518-.538 3.793-.253.767-.61 2.21-.381 1.885-.229 1.835-.284 1.474-.84 5.804-.102 3.231.03 1.455v1.449l.356 3.358.84 3.618 1.117 3.128-.024.356-.151.103h-.411l-.531-.254-.411-.561-.966-1.275-2.162-2.391-.737-.737-.435-.562-.254-1.02-.483-.761-.386-.864-.326-.434-.586-.405-.332-.411-.206-.761.031-2.754-.157-1.546-.23-1.274-.356-.634-.357-.181-1.117-.151-.435-.308-.658-.356-1.377-.176-.404.073-.387.38-.356.689.03.586.459 1.298.048.381-.102.126-.586.157-.332.175-.206.308.03.405.659 2.319.586 1.45.513.966 1.196 1.298.253 1.25.61.689.381.809.688.815 1.377 2.138.864 1.86.942 2.035.072.435-.175.61-1.298 1.703-1.577 3.002-.537.459-.713.284-.434.302-.381.688-.507.737-.278.712.048.918-.761 1.275-.259.175-.121-.049-.181-.585-.308-.23-.175-.024-.157.127-.049.429.562 1.678.024.665-.302.996v.659l.278.712.918 1.093 1.292.997.103.253-.634.64-.151.327.127.356.253.229 1.45.381.181.278-.054.386-.278.23-1.045-.157-.356.181-.079.151-.024.712-.175.333-.713.308-1.328.658-.659.61-.561.688-.049.381.254.284 1.25.531.483.308.381.097.736.259.888.151.689.332.845.025.507.229.405.048.507-.223.949-.054 1.189-.278.459-.278.411-.362.024-.381-.688-1.093-.761-.996-.435-.302-.356-.405-.025-.356.333-.719.024-.38-.206-.278-.404-.103-.791.23-.405-.079-.133-.151-.097-.404.025-.973.863-2.186.308-1.504-.356-3.104.175-.586.743-.761.278-.966.483-.767.284-.785.833-1.147 1.274-1.25.332-.097.151.048.206.278 1.377 5.834.688 1.6 1.498 2.7.356.888.586 1.147.737.791.561.683.049.434-.103.405-.912.845-1.781 1.498-2.295 2.724-1.142 2.114-.736 1.805-.514 1.782-.205 1.836-.127 1.497.103 2.036.356 2.137.64 2.09 1.268 2.7.816 1.195 1.606 1.884.761.761.459.562 1.504.966 1.908 1.172 2.518.99 1.22.357 2.114.41 1.733.073 2.036-.127 1.884-.332 1.606-.405 1.776-.688 2.168-1.118 1.292-.917 1.305-.991 1.268-1.455 1.02-1.269 1.577-2.47.893-2.391.508-2.041.175-1.577.103-1.98-.073-1.377-.435-2.084-.64-2.065-.809-1.909-1.093-1.654-.743-1.045-1.069-1.172-1.425-1.322-.888-.659-.332-.386v-.405l.688-.839.508-.767.736-1.552.484-.532.712-.736 1.25-1.552 1.244-2.066.459-1.045.024-.682-.302-.918-.277-.791.024-.429.103-.157.199-.024.356.127.997.791.277.453.103.894.332.459.888.61.356.61.894.893.097.381-.556 4.197.205 1.298 1.094 1.48.15.483-.048.175-.332.127-.942-.072-.435.072-.127.133-.024.405.308.736-.054.459-.254.254-.761.459-.869-.024-.327.151-.229.253-.054.435.41 1.117.816.713.35.157.869-.024.888.405.791-.127.532.229.743.049.634.078.586.175.428-.072h1.075l.634-.332.816-.182.483-.277.151-.381-.175-.586-.713-1.069-1.504-1.219-.181-.284.133-.61-.054-.405-.278-.254-.743-.205.03-.103.61-.38.332-.435.049-.404-.459-.61v-.182l.126-.356.641-.918.332-.682.048-.689-.38-1.401.072-.38.64-.87.381-.912-.055-.181-.126-.103-.2-.024-.157.103-.199.278-.284.229-.38-.024-.127-.151-.864-2.114-.078-1.171-.151-.332-.791-.761-.357-.816-.356-.41-.791-.484-.477-.531-1.432-2.319-1.805-2.241-.024-.35 1.171-1.661 1.299-1.648.791-.514 1.014-.736 1.25-.483.586-.151.405.102.429.326.972.562.791.205 1.981.073.815.181.381-.127.308-.459.253-.229.435-.079 1.244-.254 1.093-.356 1.045-.483.302-.429-.018-.386-.713-1.293-.332-.205-.713-.03-.41-.151-.024-.127.126-.356.025-.357-.2-.229-.362-.103-2.796.157-2.265-.308-1.552-.054-.942.103-.966.259h-.435l-.737-.284-.664-.024-.689.308-.936.302-.664.308-1.045 1.015-1.552.942-2.265 1.455-.99 1.015-1.631 1.884-.356.048-.308-.229-.531-1.166-.308-1.171.284-1.48.634-3.152.459-2.676.356-3.46-.024-2.09-.181-3.333-.459-3.31-.453-2.669-.562-3.237-1.123-5.115-.079-1.649.103-1.431.127-1.166.386-2.445.073-1.963-.103-.912-.048-2.929-.206-1.806.182-1.552-.055-1.908-.356-2.168v-.942l.254-1.063.386-.64.302-.2h.435l.712.278.562.23.429-.055.743-.761.356-.102 1.244.229.435-.054.405-.357.434-.302.405-.054 1.021.23h.712l.357-.151.561-.689.326-.175h1.48l.483-.23.61-.917.38-.127.665.078.839-.102.308-.206.278-1.014.254-.206 1.195-.308.484-.253.151-.302-.151-.332-.103-.357.308-.459.127-.332-.103-.332-1.172-1.039-2.24-2.343-1.45-1.528-2.011-1.963-1.757-1.322-.199-.278.175-.278 1.963-1.02 1.171-.864.991-1.021.126-.38-.102-.411-.181-.072-1.981-.103-2.905-.356-.302-.23.024-.38.586-.997-.024-.356-.284-.199-.634-.103-1.758-.308-2.645-.38-2.059.126-1.425.333-.64.078-.302-.205-.616-1.123-1.069-1.426-.634-.61-1.347-1.654-.284-.459-.024-.453-.024-.248zm4.753 27.068-.175.453v-.278zm-7.302 3.611.097-.151.054.103-.054.072zm-8.581 54.268-.127-.459v-.435l.127-.102.181-.049.429.079.459.247.308.459.151.87.102 1.117-.229 1.069-.278.23-.151-.025-.133-.102-.253-.538zm19.09 23.873.537-.743.332-.097.61.381.761.712.713.562.996 1.039 1.093 1.63.967 1.782.712 2.011.459 2.265.175 2.065-.096 1.679-.538 2.573-.507 1.757-.411.864-1.322 2.21-1.347 1.655-1.172 1.093-1.479 1.045-1.909 1.044-2.162.84-2.669.561-2.09.103-1.449-.103-1.504-.253-2.21-.61-2.065-.972-1.703-1.063-1.124-.918-1.322-1.196-.918-1.298-1.45-2.32-.761-1.757-.308-.888-.38-1.884-.181-2.24.127-1.758.283-1.987.635-2.162.893-1.63 1.015-1.498 1.274-1.528.918-.815 1.244-.966.357-.103.308.205.785 1.172.283.761.103 2.113.483 1.015.381 1.606.308 1.172.151 1.069.302.942 1.02 1.504.23.737.278 1.703-.073 1.123.199.809.031.743.096.839.284.484.713.561 1.322 1.395.918 1.583.049 1.038.181.538.483.537.38.121.405-.072.386-.357.327-.664.132-1.196.761-1.528 1.069-1.171.894-.864.429-.61.127-.61-.103-.664-.175-1.039.356-2.397.278-.761.507-.737.616-.894.326-.942.411-2.645-.078-1.196.537-2.265.151-1.401zm12.525.175.507-.073 1.196.025.996.253.61.381.302.459.206.61-.103.386-.586.024-.483.278-.175-.024-.459-.332-.381-.048-.38.15h-.332l-.23-.253-.284-.254-.199-.03-.356.181-.284.073-.507-.477h-.151l-.616.404h-.151l-.127-.102-.048-.182.102-.404.278-.483.634-.357zm-44.539-.785 1.317-.151 1.503.151 1.709.586.659.326.434.561.049.411-.103.103-.531.199-.357.048-.64-.35-.127.048-.277.508-.302.205-.157-.054-.127-.127-.103-.405-.151-.278-.205.254-.356.429-.333.078-.151-.078-.277-.507-.254-.23-.127.054-.284.254-.302.199-.459-.247h-.585l-.182-.079-.199-.332-.459-.151-.054-.127.03-.205.737-.767zm49.455 2.391-.338-.229-.097-.332.097-.073.205.278zm-25.027 6.77-.277.23-.127-.079-.079-.175.024-.181.103-.103.205.03.127.097zm4.409 1.045-.284-.356.03-.151.326-.206h.151l.079.127-.079.381zm-6.414-.61-.434.103-.182-.103-.048-.127.103-.133.175-.048.229.024.157.157zm-2.319.532-.151.332.025.205.151.127.38-.024.205-.308.151-.254.332.024.049.079-.2.483-.03.356-.072.073-.586-.151-.761-.508-.386-.616-.073-.404.073-.151.157-.055.531.206.308.229zm7.253.766-.205-.362-.024-.096.103-.127.41-.055.302.151.254.538-.048.151-.157.127-.683.229.024-.199zm-.791.659-.278-.61.254-.308h.127l.078.157v.175l.127.507-.102.079zm-4.885-.103.126-.38.254-.484.079.049.102.181v.435l-.127.151zm5.574 2.192-.357-.61.055-.133.326-.048.127.151.054.181-.054.816-.2.561-.434.302-1.22.278-1.607.127-1.165-.127-.942-.356-.236-.2.538-.356.181-.332v-.381l-.206-.283-.38-.103-.181.078-.127.151-.127.387-.151.531h-.133l-.278-.459-.126-.634.126-.41.387-.103 1.419.133.791.254.816.199.99-.199.64-.055.151.103.157.586.453.308.381.048.181-.103zm-3.612.737.23.308.356.048.556-.229.205-.278-.024-.356-.381-.411-.356-.072-.308.126-.229.278zm1.118 1.679 1.503-.205.127.102.024.181-.102.151-.357.151-2.035.157-1.401-.126-.302-.23v-.127l.103-.133.175-.048 1.069.181zm.761 1.655 1.25-.127.434.072.025.079-.079.103-1.22.253-1.963.024-2.367-.199-.374-.181v-.127l.151-.127h.223l1.504.278zm-1.981 1.63.785-.054.972.078.073.103-.049.151-.127.103-.41.127-.942.024-.453-.127-.055-.151.055-.181z" fill="#ed1c24" transform="matrix(.419046 0 0 -.419046 3468.24 1828.19)"/><path d="m0 .954-.459.791-1.703 2.621-.332.918-.308.658-.103.538-.561 1.576-.224.254-.103.737-.308 1.25-.404.839-.791 3.793-.333 2.494-.199 1.322v.459l.073.049.332-.435.404-1.244.079-.761.157-.562.024-.664.356-1.449.61-3.002.713-2.114.839-2.439 1.347-2.73.997-1.727.99-1.86-.048-.151-.411-.103-.175.024-.127.103.024.459zm-6.848 2.929-.689 1.86-.586 2.235-.205 1.147-.604 2.953-.205 1.806-.103 1.552v.664l.151 1.323-.103.664.103.405.103.024.181-.278.634-3.436.634-5.399.308-2.241.507-1.751.484-2.065.102-.381-.024-.127-.103-.024-.302.405zm9.01 11.221-1.045.459-1.014.513-.894.84-1.244 1.528-.894 2.162-.483 1.956-.302 2.319-.157 2.567.181.284h.127l.127-.332.048-1.148.254-1.932.078-1.552.483-1.577.791-1.938.689-1.142 1.292-1.147.489-.532 1.063-.712 1.045-.435.435-.332.103-.103-.055-.127-.302-.151-.127.278-.054.127-.096.079zm-14.887 8.02.888 1.147 1.679 1.601 1.099 1.117.864 1.147 1.528 2.47 1.522 2.724.918 2.059.537 1.202 1.196 3.05 1.045 3.183 1.751 5.163 1.963 4.789.863 2.162.435 1.48.912 2.343 3.008 6.208.99 1.498.918 1.606.181.532-.03.664-.459 1.015-.61.918-.658.585-.84.182-2.651 2.367-.785.435-.381.072-.205-.054-.157-.326.054-2.621-.078-.664-.103-.103-.072.03-.737 2.694-.308.688-.254.175-.157-.048-.199-.538-.157-1.449-.097-.84.025-.609-.641-3.08-.585-3.413-.351-1.884-.996-3.738-1.298-4.101-.683-2.337-1.25-3.237-.356-.61-.308-.761-.073-.102-.102.024.151.586.893 2.089.84 2.597.507 1.528.127.809-.073.538.405 1.298.531 1.679.792 2.699.434 2.06.151.839.206.689.205 1.22.121 1.093.332 1.654.181.665.199 1.473.127.538.103.888.411 3.285.277.483.127.048 2.295-1.189 2.108-1.148 1.504-.712 1.552-1.226 1.02-1.45 1.196-1.878.483-1.045v-.41l-.435-.786-2.645-4.607-1.504-3.286-.507-1.171-.839-1.885-1.093-2.922-1.915-6.746-1.196-3.286-.38-.863-.99-2.724-.333-.918-3.152-6.818-.815-1.449-.514-.973-.688-1.044-1.371-1.879-1.782-1.787-1.703-1.522-1.425-.864-.386-.054-.176.078-.205.327zm-1.527 27.695.459 1.245 1.805 3.689.459 1.782.127 1.093-.537 2.549-.381 1.371.048.917.308.943 1.148 1.576 1.552 1.709 1.981 1.552 3.388 1.933 2.089 1.171.357.151.151-.024v-.332l-.357-.689-.839-1.141-.972-.997-1.347-.966-2.978-2.035-2.162-1.83-.736-.815-.284-.737-.103-.87.055-1.727.277-1.836.024-1.268.055-.205.151-.127.41.072 1.625.918.513.284h.151l.024-.078-.332-.64-1.165-1.371-.973-.737-1.038-.743-.918-.864-.816-1.195-1.376-2.875-.097-.078-.054.054.054.555zm19.415 14.857.055 1.202.024.99.103.127.102-.024.23-.562.072-1.449-.199-1.244-.284-.435-.072.435z" fill="#fff" transform="matrix(.419046 0 0 -.419046 3469.56 1815.92)"/><path d="m0 .954-1.552.966-.84.659-.76 1.02-.484 1.021-.102.942.151.586.531.966 1.069.713 1.456.302.863.078 1.172-.078 1.86-.665.966-.507.556-.682.284-.743-.025-.61-.332-1.117-.483-.816-.791-.736-2.09-1.685-.38-.073-.556.205zm10.261 4.173-1.71.532-1.298.688-.888.61-.38.387-.055.151.055.181.459.326 1.981.561.736.025 1.504-.206 1.123-.38 1.601-.888.688-.562.206-.308.024-.175-.23-.253-2.162-.665zm-21.282.942-.659.103-1.353.356-.126.127.078.302.483.489.942.58 1.323.483 1.606.435.713.024 2.084-.38.942-.278.253-.284-.102-.38-.888-.61-1.401-.61-1.504-.308-1.649-.127zm26.65 2.494-1.425.357-.459.278-.127.157-.024.175.079.151.326.181.869.078 1.552-.157 1.299-.483.278-.229.102-.151v-.151l-.356-.157-1.455-.103zm-14.941 1.045-.839.357-.894.634-.966 1.044-.761 1.552-.411 1.836v1.703l.182.816.356 1.346.688 1.299 1.601 2.186 1.401 1.353.483.278.405.054.489-.284 1.981-2.265 1.298-1.986.743-2.289.223-1.323-.175-1.83-.254-.972-.41-1.093-.84-1.148-.785-.688-.64-.405-1.6-.302zm-14.379 0-.688.073-2.748.718-.127.121-.054.157.229.254.84.404 1.298.23.737-.024 1.298-.435 1.885-.839.102-.127-.024-.127-.308-.23-1.045-.253zm20.105 1.425.767 1.933.404 2.065v1.957l.387 1.093.61 1.172.706.791 1.661 1.371 1.522.743.664.126.435-.078.127-.151-.024-.387-.719-1.576-.556-2.138-.386-1.576-1.039-2.47-.894-1.347-1.014-.996-1.148-.864-1.195-.585-.411-.025-.151.097-.048.181zm4.583.737.737 1.275.634 1.6.689 2.494.483 1.045 1.045 1.22 1.835 1.147 1.553.532.483.03.199-.055.103-.126-.073-.381-.942-1.528-2.065-3.919-1.22-1.607-1.758-1.473-1.654-1.117-.429-.133-.157.03-.048.048zm-15.526-.815-.888.634-.815.948-1.377 2.186-.61 1.631-.816 2.494-.434 1.323-.713 1.83.054.157.332.175.937-.024 1.171-.333 2.192-1.044.737-.532.634-.839.206-.538-.333-1.86-.048-1.655.103-1.038.253-1.576.737-2.12-.024-.175-.127-.103-.38.054zm-3.896.229-.966.532-.562.435-.839.688-.405.562-1.171 1.854-.84 1.963-.918 2.645-.459 1.099-.024.38.157.127.659-.03 1.425-.61.918-.586.483-.531.405-1.093.483-.791.078-.562.079-.658 1.449-3.08 1.045-1.709.531-.532.079-.157-.055-.151-.404-.072zm24.972 3.358 1.83 3.437.538.688.99.791.664.332 1.172.381h.707l.386-.127.103-.127-.079-.308-.869-.912-2.978-3.062-1.781-1.497-.737-.538-.332-.024-.024.127zm-31.258.103-.864.863-1.347 1.685-.821 1.703-.61 1.45-.024.181.078.151.381.127 1.322-.459.792-.483.38-.562 1.021-2.796.863-2.216.024-.176-.072-.126-.181-.031zm21.155 5.834-.308.73.102.363.381.356.767.278.405-.048.301-.182.254-.537-.024-.429-.658-1.093-.381-.332-.332.048-.308.459zm8.165 1.165.537.713.459.356.58.079.338-.151.121-.64-.097-.405-.435-.308-1.576-.737h-.181l-.072.127.048.405zm5.96.181-.181.302-.38.127-1.45-.096h-.688l-.332.175-.308.942-.224.302-.332.181-1.63-.103-.278.206-.308.736-.254.23-.356.078-1.148-.386-.555-.048-.816.404-1.044-.223-.634-.133-.333.157-.791.761-.024.205.079.103.785-.151.356.175 1.045.713.435.072.302-.175.41-.864.326-.181.387.103 1.147.64.429.048.175-.078.206-.254.308-.761.356-.157.586.181.688.333.405.102.332-.102.151-.357.181-.61.302-.205 1.274.175.713-.048.205-.278.097-.719.181-.326.381-.127 1.376.103.151-.078.127-.357.103-.435.254-.229.761-.23-.025-.072-2.669-.688h-.205l-.175.078-.055.127zm-24.923-.308-.556.484-.03.38.386.411.357.127.38-.103.689-.532.253-.459.025-.356-.206-.561-.302-.182-.356.079zm13.189 1.094-.41.664.03.175.096.103.816-.206.507.206.459.332.356.024.562-.483.356-.127 1.528.538h.206l.15-.103v-.157l-.253-.302-1.884-.634-1.347-.689-.387-.078-.302.151zm-25.328.434-.429-.175-.078-.133.024-.634-.079-.127-.428-.078-1.836.435-.23.253-.024.151.127.103.743.284.658.634.332.127.791-.206.429.055.791.737.308.126.942-.277.375.102.489.556.302.181.435-.024.61-.387.404-.048.411.151.688.87.357.127 1.165-.284.743.259.356-.03.103-.102-.03-.176-.073-.126-.712-.308-.743-.761-.707-.562-.459-.024-.537.229-.912.357-.918.024-.332-.181-.689-.84-.507-.278zm3.944-.078.308-.199.078-.157-.024-.127h-.308l-.308.229-.048.103zm4.052 1.069.429-.073.181-.284-.024-.15-.411-.103-.254.024-.181.079-.072.15z" fill="#fff" transform="matrix(.419046 0 0 -.419046 3468.18 1827.1)"/><path d="m0 .954-.61.181-.103.151v.151l.127.103h.435l1.576-.459.103-.127v-.103l-.381-.096-.712.048zm.586 1.48-.737.302-.284.205-.048.127.078.102h.381l1.932-.815.103-.102-.048-.103-.435-.024zm.127 1.165-.991.514-.157.277.079.127.38-.024 2.138-.894.079-.096-.049-.103-.712-.024zm2.621 2.343-.308-1.014-.278-.26-.429-.024-1.431.356-.834.381-.386.41-.103.586.435 2.084.405 1.328.513 1.244.815 1.402.761.76 1.148.894 1.654.864.785.254.357-.103.102-.175.079-.967.229-1.298.429-1.093.133-.616-.103-.381-2.065-2.21-.302-.205-.181.024-.127.103-.229.561-.127.073-.357-.103-.332-.405-.127-.64z" fill="#fff" transform="matrix(.419046 0 0 -.419046 3462.47 1791.19)"/><path d="m0 .954.38.658.133.103.049-.048-.079-.61-.483-1.021-.229-.253-.127.024v.308zm-1.606.483-.23-.712-.302-.459-.127-.025-.078.097v.211l.127.375.513 1.504.048 1.171.23.508.839.718v.175l-.078.103-.453.048-.665-.126-.229-.254-.103-.381-.229-.815-.254-.254-.151-.03-.078.133-.024.205.205.604.785 2.422.537.966.659.61 1.044.713.641.078.61-.126.634-.387.175-.278-.073-.61-.229-1.781.103-1.117-.025-.943-.308-.489-.38-.151-1.093-.151-1.196.055-.411-.079-.229-.278zm3.237.435.151.254.126-.308-.048-.761-.181-.332-.151-.127-.127-.03-.054.108zm44.671 9.898-1.479.23-.459.278-.278.253-.103.411.049.658.386.64.326.181 1.099.176.429.332.381.38.742.532.556.151 2.494.338.157-.079.048-.127-.048-.15-.537-.26-.785-.23-.284-.199-.659-1.377-.229-.278-.03-.181.229-.229h.332l.381.38.411.61.277.211.942.302.103-.078.332-1.069-.483-.483-.435-.61-.459-.278-1.884-.435zm5.061.508-.078.157.054.126.151.151.411.049.555-.23.411-.356.024-.127-.127-.072-.61.072zm-47.776-.073-.634.356-.205.333v.404l.966 2.518.991 1.758 1.709 2.319.483 1.22.284.229h.634l2.494-.459.253-.253.079-.381-.411-1.606-.863-1.83-.894-1.377-1.196-1.552-1.6-1.655-.791-.483-.429-.024zm49.177 1.196-.918.078-.175.049v.102l.586.151 1.322-.151.586-.181.127-.103v-.096l-.38-.055-.562.182zm-14.482 1.528-1.377.887-1.244 1.021-.712 1.039-.767 1.25-.308 1.196.181.791 1.069 2.645.513.761.278.235.38.025.381-.381 1.123-3.261.507-.688 2.573-2.978.175-.586-.151-.356-.712-1.014-.411-.87-.35-.151-.586.205zm-33.904 6.129-1.322 1.987-.918 1.86-.024.429.253.284 1.244.785.387-.024.332-.175.888-1.172 1.274-1.473.127-.665-.356-1.425-.435-.791-.302-.205-.435-.024-.435.332zm33.494 2.422-.429 1.625.024.435.308.459 1.069.942.912.585.459.049.38-.151 1.22-.967.055-.181-.151-.555-.894-1.353-.84-.888-1.044-.767-.381-.127-.199.025-.26.259zm-38.814 5.828-.332.429-.254.743.127.634.103.151.151.03.356-.079.181.025.199.283.665 1.879-.079.664-.247.712.096.381.127.151.151.078.181-.024.23-.278.38-1.147.127-.894.332-.942v-2.108l-.254-.513-.712-.531-.332-.151-.405.024zm44.086 1.147-.254.278-.078.405.277 1.709-.483 3.334.079.664.253.731h.049l.03-.604.103-.127.126-.054.278.205.538.785.151.078.175-.048.054-.157-.078-.405-.459-.839v-.664l.664-1.401.254-.991.102-.404.151-.133.181.03.381.332.103-.054.126-.381-.181-1.045-.429-.839-.585-.664-.411-.103-.634.103zm-26.548 4.023-.182 1.141.031.435.072.048 1.172-1.884.127-.405-.025-.181-.332-.199-.326-.127-.157.048-.175.308zm2.367.229-.483 1.039-.127.894.151.555.459 1.045.205.562.127.078.326-.078 1.045-.508 1.093-.356 1.226-.024.791.223.761.26.151-.03.181-.278-.03-.381-.326-.688-1.123-1.123-1.347-.942-1.528-.761-.61-.127-.459.054-.254.224zm-19.549.223.308-.253.049-.151-.049-.157-.151-.121-.181-.054-.181.054-.127.151-.024.429zm1.679 1.251.079.102.229-.205.278-.791v-.2l-.073-.132-.205.235zm44.237 1.473.103-.175-.049-.435-.127-.151-.157-.078-.151.078-.102.405z" fill="#fff" transform="matrix(.419046 0 0 -.419046 3458.84 1800.1)"/><path d="m0 .954-.127-.713.254-.277.356.048.254.254.054.386-.205.302-.308.175z" fill="#fff" transform="matrix(.419046 0 0 -.419046 3466 1783.36)"/><path d="m0 .954-.151.356-.151-.024-.127-.157-.03-.199.079-.151.151-.054.157.078z" fill="#fff" transform="matrix(.419046 0 0 -.419046 3466.07 1780.1)"/><path d="m0 .954-.151.356-.151-.024-.133-.157-.024-.199.079-.151.151-.054.157.078z" fill="#fff" transform="matrix(.419046 0 0 -.419046 3468.42 1778.22)"/><path d="m0 .954-.121.284-.121-.018-.102-.121-.018-.163.06-.121.121-.042.121.06z" fill="#fff" transform="matrix(.419046 0 0 -.419046 3468.59 1778.38)"/><path d="m0 .954.151-.103.024.127-.103.049z" fill="#fff" transform="matrix(.419046 0 0 -.419046 3470.51 1779.99)"/><path d="m0 .954-.61-.229-.996-.206-.991.284-1.069.658-.61.665-.561.688-.61 1.166-.254.229-.38-.024-.387-.048-.199.302-.03.41.102.127.157.024.357.127.072.157.03.429-.259.815-.278.175-.562.031-.483.483-.175.61.096.356.157.103.689.024.356-.151.278-.103.181.079.61.912.966 1.757.429.562.616.404.936.308.997-.253h.918l.706.302.411-.049.839-.404.484-.538.434-1.02.049-.381-.127-.103-1.117.025-1.045-.254-.103-.151-.024-.181.079-.151.38-.151 1.147.078.556-.157.586-.151.41-.102.176-.333.175-.863.284-.713.205-.561.024-.991-.181-.356-.254-.181-.507.127-.127-.049-.253-.483-.381-.888-1.147-1.352z" fill="#fff" transform="matrix(.419046 0 0 -.419046 3468.74 1783.98)"/><path d="m0 .954.054-.713.254-.253.175-.024.127.072.284.483.024.357-.23.308-.308.151-.151-.079z" fill="#fff" transform="matrix(.419046 0 0 -.419046 3470.04 1783.13)"/><path d="m0 .954-.308-.483.157-.356.302-.103.157.103.048.205-.048.453-.127.133z" fill="#fff" transform="matrix(.419046 0 0 -.419046 3470.67 1780.93)"/><path d="m0 .954.586-.435.586-.102.736.283.586.429.103.411-.079.175-.507.254-.308.205v.127l.23.459-.049.127-.181.078-.483.048-.815.182-.405-.025-.079-.132.151-.302.562-.435.054-.103-.688-.302-.356-.386.024-.151z" fill="#ed1c24" transform="matrix(.419046 0 0 -.419046 3467.77 1783.13)"/><path d="m0 .954.38-.483.586-.151.381.072.616.411.404.326-.054.338-.38.405-.459.254-.659.102-.61-.157-.41-.38-.103-.302z" fill="#ed1c24" transform="matrix(.419046 0 0 -.419046 3468.89 1781.31)"/><path d="m0 .954.61.024.308-.404.127.072.102.387-.126.579-.743.562v.103l.157.078.229.254v.175l-.102.157-.641.405-.785.181-.839-.127-.513-.26-.224-.253.024-.151.097-.127.181-.079.84.182.332-.103-.055-.079-.61-.175-.531-.483v-.38l.435-.308.278-.459.61-.176.428.073z" fill="#ed1c24" transform="matrix(.419046 0 0 -.419046 3467.64 1781.35)"/><path d="m0 .954-.435-.157-.048-.199.024-.206.284-.253h.175l.278.205v.356z" fill="#ed1c24" transform="matrix(.419046 0 0 -.419046 3468.47 1780.13)"/><g fill="#fff"><path d="m0 .954-.121.284-.121-.024-.102-.121-.018-.157.06-.121.121-.042.121.06z" transform="matrix(.419046 0 0 -.419046 3468.57 1778.07)"/><path d="m0 .954-.121.284-.127-.018-.096-.127-.024-.157.066-.127.121-.036.121.06z" transform="matrix(.419046 0 0 -.419046 3468.29 1777.99)"/><path d="m0 .954-.121.284-.121-.018-.102-.127-.018-.163.06-.121.121-.036.121.06z" transform="matrix(.419046 0 0 -.419046 3468.17 1778.27)"/><path d="m0 .954-.121.284-.121-.018-.102-.127-.024-.157.066-.121.121-.042.121.06z" transform="matrix(.419046 0 0 -.419046 3468.36 1778.49)"/><path d="m0 .954-.157.356-.151-.024-.127-.157-.024-.199.079-.151.151-.054.15.078z" transform="matrix(.419046 0 0 -.419046 3466.43 1779.66)"/><path d="m0 .954-.151.356-.151-.024-.127-.151-.03-.205.079-.151.151-.054.157.078z" transform="matrix(.419046 0 0 -.419046 3466.38 1779.59)"/><path d="m0 .954-.151.356-.157-.024-.127-.157-.024-.199.079-.151.151-.054.157.078z" transform="matrix(.419046 0 0 -.419046 3466.76 1779.13)"/><path d="m0 .954-.151.356-.157-.024-.121-.151-.03-.205.079-.151.151-.054.157.078z" transform="matrix(.419046 0 0 -.419046 3469.24 1778.9)"/><path d="m0 .954-.151.356-.151-.024-.127-.151-.03-.205.079-.151.151-.054.157.078z" transform="matrix(.419046 0 0 -.419046 3470.3 1779.59)"/><path d="m0 .954-.151.356-.151-.024-.127-.151-.03-.205.079-.151.151-.054.157.078z" transform="matrix(.419046 0 0 -.419046 3469.83 1779.19)"/><path d="m131.119-8.879h355.941v12.978h-355.941z" fill-rule="nonzero" transform="matrix(.464512 0 0 -.419046 3566.9 1790.88)"/><path d="m-211.33 1.015-16.65-.061-1.522.405-.538.513-.416 1.661.108 9.596.592 1.546 1.546.689 2.476.283.598.429.332.719.314 37.666-.598 1.6-.694.459-3.358.574-.616.52-.543 1.63.126 9.735.647 1.522 1.419.628 22.864-.03 10.919-.803 6.087-1.884 2.76-1.697 5.55-5.007 2.531-3.581 2.319-4.759 1.6-5.037 1.214-6.788.205-6.16-.229-6.099-1.546-7.652-2.223-5.725-2.687-4.3-5.182-5.351-4.076-2.784-4.517-1.316-6.945-1.172h-8.745zm182.473 39.381-.26-2.579.489-.543.725-.23 3.95.085 3.098.29.489.483.175.749-.072.827-3.871 15.013-.441.429-.465-.205-.411-.689zm-180.052-17.87.079-4.668.338-1.576.543-.49 2.241-.573 6.196.972 3.612 1.576 2.76 2.066 2.089 2.778 1.733 4.04.876 4.263.229 7.102-.67 5.273-1.6 4.958-1.933 2.947-2.554 2.289-2.941 1.407-3.02 1.057-6.45.604-.755-.345-.513-.628-.284-1.721zm77.525-21.602-24.362.06-11.046.031-.748.283-.592.604-.465 1.776v9.681l.229.918.495.712 1.601.489 2.373.284.568.544.41 1.691v27.212l-.308 10.369-.386.574-1.522.429-1.679.139-.749.29-.543.513-.387 1.631.031 9.825.229.864.489.682 1.498.544 39.224.09 7.175-.114.773-.175.646-.429.622-1.607-.157-14.747-.157-6.957-.284-.773-.568-.635-1.546-.459-6.377.26-1.238.918-3.279 9.107-.592.604-1.625.453-11.951-.054-.767-.23-.598-.489-.489-1.661.048-6.987.284-.803.519-.544 1.546-.284 6.426.085.827-.26.647-.543.362-.743.103-10.484-.417-2.663-.489-.689-.725-.398-7.893-.375-.646-.374-.411-.689-.181-2.633.078-8.823.254-.773.519-.544 1.498-.368 12.103.109.718.259.598.544 1.009 3.297 2.138 7.706.489.743.67.483 1.631.29 6.395-.199.67-.344.441-.628.308-2.579-.308-22.116-.229-.803-.495-.598-1.468-.428zm58.628.773-1.159 1.292-17.447 35.058-.514.513-.489-.024-.441-1.492.024-15.871-.181-3.521.133-.857.387-.689 1.364-.688 2.482.03.743-.199.574-.544.387-1.721-.212-10.484-.362-.688-1.389-.568-21.288-.374-1.655.229-.725.399-.489.688-.308 1.721v9.681l.362.827.592.574 1.552.375 1.625.054.719.26.543.543.362 1.745.103 30.335-.181 6.963-.411.683-.67.404-2.633.2-.803.283-.538.574-.362 1.721-.079 9.681.616 1.516.622.435 3.974.253 3.871-.03 3.871.175 5.55-.03 1.498-.543 1.522-2.036 15.659-31.965.52-.344.386.314.103 2.693-.205 6.988.048 8.165-.181.948-.411.743-.67.489-3.926.453-.483.519-.314 1.691-.103 9.765.725 1.607 1.546.628h21.886l1.57-.429.568-.604.417-1.691-.079-8.907-.465-1.776-.567-.598-3.099-.688-.591-.459-.544-1.577-.229-11.287-.339-40.094-.229-.803-.465-.604-1.45-.513-6.292-.145zm65.549-.682h-7.875l-3.146.199-.773.229-.646.514-.592 1.606-.024 8.908.308 1.806.489.688.725.423 1.672.259.725.345.417.658-.03 1.806-1.033 4.239-.387.713-.591.489-5.575.314-7.198-.054-.749-.26-.544-.513-.899-3.292-.544-2.579.103-.833.465-.658 2.476-.803.622-.484.513-1.582.157-6.208-.26-3.611-.308-.888-.519-.689-.694-.428-14.76-.314-7.072.199-.827.284-.616.543-.465 1.607-.182 9.65.23.864.519.682 1.546.658 1.655.23.719.344.543.574 3.02 11.601 6.552 26.693-.078.834-.411.573-1.473.399-1.571.26-.646.459-.67 1.66-.024 9.742.151.857.416.713.64.519 2.404.368 15.69-.169 19.639-.09.773-.284.544-.574.435-2.572.078-4.415-.308-4.469-.26-.858-.489-.688-1.552-.628-1.649-.344-.513-.52-.205-.773 1.057-5.151 8.201-32.944.441-.688.67-.399 2.53-.344.725-.429.489-.712.284-1.806-.127-8.968-.211-.888-.435-.689-.7-.453-6.269-.344z" transform="matrix(.486463 0 0 -.486463 3764.87 1831.13)"/><path d="m-104.484-5.804-25.515.097-1.583.284-.664.447-.658 1.407.102 2.899.689 1.244 1.425.519 4.838.429.658.423.398.609.314 8.618-.157 22.883-.289 4.312-.399.537-1.449.429-16.167.139-1.637-.284-.586-.447-.501-1.365-.127-29.356.024-5.091.266-.683.526-.537 1.588-.423 4.988-.211.743-.356.501-.568.369-2.162-.025-2.192-.295-.659-.55-.495-1.612-.447-32.225.024h-4.989l-.821.188-.658.447-.665 1.322.055 3.014.634 1.316 1.425.61 4.837.073.707.259.531.496.399 1.431.236 12.175-.29 2.893-.423.567-1.48.568-16.112-.26-1.582-.471-.556-.543-.399-1.365-.181-5.864-.501-2.114-1.087-1.957-1.872-1.485-2.404-.707-3.225-.187-5.598 1.087-5.206 1.951-4.777 2.778-2.905 2.379-2.355 2.869-1.395 3.37-.157 2.168 1.105 3.526 1.824 2.543 1.902 1.413 2.984 1.111 4.674.725 26.518.26 12.018.332.664.374.628 1.299.085 4.541-.453 1.437-.58.447-2.379.236h-25.673l-29.314.072-.845-.193-.665-.398-.422-.61-.58-11.632-.344-.634-.634-.471-1.661-.308-40.203.308-7.156-.097-2.38-.447-2.138-1.105-1.612-1.769-.737-2.162.181-2.217 1.087-1.902 1.903-1.395 3.774-1.504 5.653-.773 4.753.018 3.992.616 3.907 1.244 3.406 1.933 4.415 4.167 1.449.682 3.249.163 17.115-.326.821-.145.683-.398.453-.61.235-2.241.242-14.264.181-.683.423-.543 1.479-.399 4.095-.284.791-.211.658-.423.586-1.364.024-3.038-.266-.731-.525-.543-.713-.302-15.955-.218-8.159-.066-12.942.326-.743.235-.579.496-.447 1.509.048 3.014.32.658.58.495 1.588.375 3.298.163.797.235.634.471.417 1.414-.079 2.282-.314.616-.58.375-1.612-.024-10.146-2.096-8.763-1.292-8.086-.61-6.474.042-7.893.852-4.626 1.177-4.409 2.048-3.195 2.355-2.428 2.826-1.111 2.706-.634 2.826.103 2.941.9 3.533 2.349 3.835 2.856 2.705 2.64 1.558 4.487 1.528 5.495.755 16.191-.096 23.293-.067 1.564.375.502.543.314 1.504-.133 1.51-.26.658-.555.471-1.691.326-40.149.284-4.964.139-.713.26-.501.495-.32 1.413.157 3.696.242.682.477.496 1.504.38h12.996l17.719-.072 18.383.072.821.187.471.423-.024.61-1.691 1.6-6.866 4.971-5.019 2.542-3.907 1.298-5.466.87-3.249.024-4.094-.803-6.921-2.657-.713.115-1.189.966-7 12.006-.266 1.413.29.658 1.19.894 4.517 1.697 6.233 1.341 3.249-.025 4.837-.869 5.067-2.12 9.246-5.459 27.285-19.495 1.449-.356 16.856-.236h31.983l36.634.073 21.529-.236 13.6-.024 22.792.024.822-.139.688-.356.682-1.244.109-2.995-.211-1.456-.314-.64-.586-.447-2.404-.374-7.476-.26-.761-.26-.58-.495-.398-1.455v-33.578l.446-1.317.532-.471 1.504-.308 4.909-.187 1.432-.561.392-.592.163-3.624-.477-1.365-.634-.471-1.667-.284z" transform="matrix(.4819 0 0 -.4819 3805.54 1784.61)"/></g></g><path d="m2158.95 2173.04h98.299v50.475h-98.299z" fill="#ff0" fill-rule="nonzero"/><path d="m2124.56 2173.04h34.397v50.475h-34.397z" fill="#d40000" fill-rule="nonzero"/><g transform="matrix(.266723 0 0 .266723 1365.22 1718.41)"><path d="m0 .954-.302-.616c-.55-1.244-1.395-3.672-2.687-4.39l-.151-.091v-2.168l-.218-.097c-2.071-.948-2.796-5.713-3.557-7.561l-.145-.32h-.767l-.048-.368c-.151-1.19-.519-2.41-.719-3.612l-.024-.362h-.791v-1.461h-.791v-1.444l-.242-.024-.199-.018-.145-.024-.078-.048-.073-.067-.024-.048v-.206c-.067-.235-.127-.193-.35-.271l-.194-.024h-.247v-1.51c.072-3.497.024-8.781 1.431-11.994l.121-.278h.791v-2.168h.791v-3.635h.791v-2.175h.767l.145-.271.127-.296.097-.32.096-.296.175-.64.145-.622.151-.592.175-.526.097-.253.097-.206.126-.181.145-.157v-1.443l.2-.024c2.059-.429 1.413-6.752 2.79-7.199l.145-.018.03-.507c.054-1.353.682-5.387.024-6.674l-.054-.09h-.791v-1.438l-.785-.73h-.767l-.792-.731-.024-.254-.048-.247-.073-.23-.102-.229-.121-.206-.127-.187c-.32-.453-.779-.785-1.008-1.28l-.049-.133-.024-.139h-.151c-.658-.097-1.455-.652-2.047-.707h-.151l-.024-.41c-.797-3.877-11.354-5.212-14.295-5.393h-.562l-.024-.073-.03-.072-.072-.061c-.586-.356-.997-.422-1.655-.573l-.513-.115-.55-.115-1.111-.181-1.009-.139-.815-.09-.495-.049-.169-.133-.248-.163-.32-.205-.344-.181c-4.668-2.259-11.155-4.795-16.221-5.786l-.399-.042h-.314v-.09c-.387-.937-2.766-2.513-3.732-2.791l-.169-.024-.031-.157c-.277-1.618-3.744-4.674-5.157-5.483l-.32-.163v-.139c-.205-1.456-2.108-1.915-2.343-3.358v-.139l-.175-.024c-1.1-.187-3.6-1.504-3.727-2.742v-.133h-.368c-3.388-.332-4.88-4.312-6.395-6.812l-.296-.435h-.791l-.073-.139c-.519-1.002-1.159-2.252-1.48-3.333v-.163l-.15-.018c-.997-.508-1.456-1.975-2.839-2.15h-.145l-.024-.163c-1.655-3.062-6.915-7.568-9.385-9.983v-1.468h-.791v-1.437h-.761l-.024-.362c-.018-.991-.139-3.056-1.407-3.274h-.151v-2.168l-.145-.09c-1.371-.737-2.072-3.853-2.911-4.252l-.079-.024-.024-.32c-.163-.87-.465-1.637-.712-2.47l-.055-.115h-.761l-1.582-2.88h-.791v-.067c-.06-.743-.513-1.292-1.28-1.371l-.272-.024-.791-3.636h-.791l-.049-.066c-.688-1.317.019-5.767.025-7.175l.024-.73h.271l.2-.024c.121-.049.35-.097.32-.272v-.139c.096-.211.066-.217.344-.248l.175-.03h.272v-.157c.066-.664.719-1.842 1.407-2.011l.145-.024v-1.437l.791-.731h1.582v-.23c.061-.984.683-.012.761-.984v-.23h1.583l.096-.066.272-.163.423-.229.465-.272.543-.272.52-.229.223-.091.224-.073.193-.042.175-.024.791-.731v-.706l.761-.737c3.026-1.89 2.005.845 5.435-2.627l.049-.133v-.139h1.576v-.731h1.558v-.712h1.582l.785-.725v-1.467l3.116-2.899h.145l.145-.024.151-.049.151-.042.121-.072c.266-.151.381-.23.568-.478l.096-.114.049-.139.078-.133.024-.115.049-.139v-.139l.791-.73.767-.731h.169l.175-.042.169-.073c.749-.41 1.142-.712 1.782-1.256l.072-.066h1.552l2.349-1.468v-.707h.073c.737-.102 1.371-.398 1.486-1.213l.018-.248h1.558l.791-.707v-.73l.785-.737h1.558l2.343-2.168v-1.462h.175c.755-.229 1.607-.924 2.199-1.443v-.731h.761v-.73h.791l.791-.707c.211-5.888 14.198-17.477 19.349-19.905l.55-.254.465-.157c8.751-2.065 25.352-1.63 34.163.338l.592.188.496.199v.737l.32.114c2.041.725 4.632 1.063 6.788 1.299l.718.024.024.139c.399.755 1.993 1.196 2.319 1.896l.025.139.175.024c.851.109 4.849 1.256 5.284 2.078l.024.066h3.92l.767.731v.731h.791v.736h.791l.761.707c.102.761.573 1.8.894 2.47l.193.362.199.345c.224.428.495.875.912 1.141l.103.024.072.024v1.438c.882 1.02 1.335 3.055 2.198 4.203l.145.163h.791c.78.791.786 1.872 1.83 2.579l.242.163.272.157v2.174h.151l.145.024.126.042c.52.139 1.057.689 1.136 1.238v.133l.145.163.35.435.489.592.598.731.562.755.495.706.199.302.169.272.103.229.024.181 3.134 2.905h.151l.17.043.199.072.193.109.423.235.441.248.422.272.417.229.199.097.2.066.175.042.145.025.791.73v.139l.024.115.097.23.078.09.097.115.072.09.127.091c.755.586 2.041.779 2.567 1.643l.024.139.024.114.024.139h.145c.652.049 2.663.616 2.965 1.305l.025.133h1.558l.169.138.223.115.272.091.296.09.67.163.713.133c.634.121 1.606.278 2.198.598l.169.139v.725h2.349v.712l.321-.024c.616-.072 1.89-.501 1.998.501l.025.254h2.343l.024.139c.35.737 2.09 1.256 2.295 1.896l.03.139h2.367v.725h3.135v.737h1.552v1.437h.791v1.461h.791v5.804h-.791v1.443h-.791l-.145.23c-1.305 3.225.054 10.212.121 13.667l.024.616.078.024c.737.616.647 5.9.713 6.691v.532h-.791l.03.296c.139.748.507 1.684-.544 1.872h-.271l.024.616c.084 3.327 1.431 10.598.121 13.666l-.145.23h-.767v1.437h-.791v10.17h-.785l-.792 3.611-.767.737h-.791v.731h-.791l-.785.731v2.168h-.248c-1.062.084.019.658-1.062.712l-.248.019-.024.301c-.187.773-.568 1.498-.719 2.283l-.048.32h-.145l-.175.049-.175.066-.194.091-.392.253-.375.248-.344.278-.296.229-.175.157-.072.067v1.467l-.791.707-.145.024-.351.042c-.513.121-1.558.61-1.775 1.123l-.049.133-.024.139h-.344c-2.796.357-6.051 1.117-8.714 2.035l-.345.139v.731l-3.134.707v.253c-.121.955-.688.018-.767.961v.247h-2.373v.731h-1.552v.713h-1.583v.247c-.102.954-.658.018-.761.96v.254h-.175c-.622.036-2.772.634-2.959 1.371v.066h-2.349v1.468h-.791v1.437l.247.024c1.057.03.012.628 1.063.707h.248v1.437l.791.737h1.552l.791.725v.736l.791.707h1.552v.731h1.583l.785.731v.73h.767l.791.713c-.03.296.145.555.247.821l.145.272.151.278c.181.32.188.483.248.821l.791.707h.767v.73h.785l.791.737v1.438l.248.018c1.057.042.012.634 1.063.712h.247v1.444h.785v1.461h.792v1.437l.767.731h.791l.791.731v1.443h.785v1.462h.247c1.039.066.007.652 1.063.706l.248.024v1.438h.272c1.008.09.012.658 1.038.712l.266.019v2.174h.767v2.168h.791v2.174h.791l.121.296c.701 1.775.622 4.197 1.311 5.942l.121.296h.791v2.905h.791v2.899h.791l.042.139c.725 2.216-.054 6.093.646 8.412l.073.157h.791l.072.139c.616 2.047-.754 4.191-.145 6.239l.073.139h.791v2.898h-.791v2.905h-.791v2.168h-.761v2.198h-.791v1.438h-.791v1.461l-.791.713-.767.731-.761-.025-1.015-.066-1.184-.091-1.256-.09-.622-.03-.592-.018c-.682.012-1.582-.037-2.222.205l-.097.042-.096.073v.73h-3.902v.731l-.102.048c-1.063.58-5.816-.682-6.172.544v.115l-.242.072c-.99.332-4.541 1.178-5.236 2.029l-.024.073h-1.552v.731l-.296-.025c-.664-.169-1.208-.398-1.262.502v.253h-.175c-.767.115-1.486.429-2.193.731l-18.787-.731-.049-.205c-2.27-2.307-12.259-2.229-15.454-3.883l-.121-.139" fill="#fff" transform="matrix(.39386 0 0 -.436703 2913.89 1720.91)"/><path d="m0 .954.64 2.331.272 1.19c4.535 17.338-18.993 10.26-27.967 12.024l-1.553.042-1.582.067c-9.892-.018-26.252 12.519-32.285 4.457l-.32-.411-.272-.435-.248-.477-.223-.501-.199-.508c-1.311-3.653-.496-7.869-.369-11.649v-1.812c.061-1.546-.803-5.574-2.047-6.51l-.151-.073-.145-.018-.175-.024c-3.938.646-6.691 8.437-11.281.067l-.272-.435-.272-.405-.271-.35-.2.235c-2.12 3.243-.797 8.214 2.422 10.303l.399.254.096 1.896.121 1.848c-2.198 25.377 29.972 28.221 48.138 27.998l1.135-.115 1.087-.139c20.268-2.73 34.937-15.961 28.88-37.316l-.224-.845-.247-.779-.393.048c-.592.012-1.141-.018-1.727-.024l-.374.024zm-113.995-149.856-1.087-.978c-2.126-1.993-4.276-3.968-6.414-5.943l-1.063-.984.592-3.521.568-3.496.592-3.521c.96-5.84 1.968-11.68 2.91-17.526l1.583-15.678 1.6-15.701c3.285-31.434 6.619-62.868 9.753-94.32l-.193-.773-.072-.411c-.641-3.786.597-7.941-.894-11.68l-.169-.392-.2-.387 3.062-.066c7.954-.145 15.913-.036 23.867-.163l3.086-.066-8.69 12.295-.145.206c-.501.785-1.015 1.63-1.111 2.584l-.025.224v.205c1.196 18.148 1.794 36.332 3.207 54.461l.296 3.89.344 3.859.991-.888c13.503-14.029 14.747-54.419 15.007-72.7l.024-3.587 1.703-.097c8.576-.259 17.127.139 25.697-.157l1.703-.066-1.383 1.939c-2.416 3.351-4.916 6.419-8.316 8.823l-.761.525-.127 7.585-.151 7.592-.169 7.561-.175 7.567c-.501 22.864-.894 45.843.695 68.677l.265 3.883.32 3.865.351 3.908c1.147 4.722-.453 10.635 3.255 14.349l.646.936 1.304 1.944c3.642 5.49 6.97 11.167 10.792 16.524l.689.936.719.942.688.912.713.869.694.846c3.859 4.475 8.642 8.147 13.824 10.967l.96.525.96.502c6.909 3.696 15.684 5.688 21.971 8.889l.398.302.369.32.32.338.32.369.302.368.266.411c1.612 2.699 1.606 5.961 1.533 9.004l-.072 1.462-.127 1.51c-1.359 14.735-.211 29.984-1.872 44.611l-.199 1.051-.248 1.002-.223.985c-4.167 19.754-18.716 19.18-34.556 28.589l-1.655.845-1.631.846-1.576.87-.199-.937c-.308-1.63-.658-3.243-.991-4.867l-.169-.936 1.975-.87c9.681-4.306 19.639-9.656 28.016-16.203l.767-.616-6.299-13.141-1.625-1.051-8.297.501-.937 7.724-3.261-.32-.664-4.825-2.247-.157.568-2.603c-.459-3.207-.054-6.419-.417-9.602l-.078-.773.622-.073c.99-.06 1.987.097 3.007.049l.616-.073.272.936c.393 1.583.671 3.195 1.063 4.777l.248.942.96-.072c2.271-.145 4.523-.054 6.794-.181l.936-.091-.35-1.673c-5.272-29.676-18.444-56.846-33.669-82.682l-1.552-2.699-1.087.096c-2.735.206-5.483.338-8.219.55l-1.087.084.248.622.296.641.295.616c2.018 4.921 8.854 14.276 9.579 18.558l.169.87.151.845.296 1.685c.622 4.155.972 8.364 2.047 12.435l.223.845.272.846.272.869.32.87.344.869.375.888.392.894.447.912.489.918.52.936.567.936 1.854 3.841-.694 5.345 1.95 17.441 1.975 3.744.103.254.072.271.049.296v.302c-.29 2.066-1.534 3.859-1.752 6.215l-.127.936-.096.984c-.356 6.208-.586 12.592 1.528 18.558l.048.345v1.002c-.127 1.419-.682 2.5-1.401 3.702l-.103.254-.072.247c-.652 2.452.109 5.031.223 7.495l.073.688.024.641.024.591-.048.532-.985-.024c-2.125-.121-4.233-.477-6.371-.574l-.99-.024.718-3.104c7.422-34.568 1.057-85.793-18.981-115.439l-.247-.574-49.467-.73-.791 19.428 1.703.09c8.358.344 16.722.206 25.08.55l1.703.09v3.497l-22.538-.459-.072.532c-.701 3.484-2.108 6.788-2.79 10.278l-.079.55-.561-.224c-2.005-.839-3.564-2.029-5.532-2.929l-.52-.229" fill="#00a" transform="matrix(.39386 0 0 -.436703 2940.07 1731.27)"/><g fill="#000080"><path d="m0 .954.393.163c1.588.52 5.157 1.214 6.637.042l.048-.066 2.82 2.126-.296.296c-2.645 2.379-7.349 1.739-10.417.755l-.592-.206zm-32.364 6.722.568.133c4.674 1.099 8.255.863 12.072-2.241l.368-.296 2.416 2.494-.417.345c-4.807 3.853-9.475 4.324-15.351 2.947l-.622-.163" transform="matrix(.39386 0 0 -.436703 2937.11 1732.68)"/><path d="m0 .954-1.063-.386c-9.584-3.231-17.991-2.132-24.785 5.688l-.64.78-2.886-2.018.712-.863c7.809-8.968 17.834-10.484 28.861-6.722l1.16.411zm11.994 14.971v3.358h-8.34v-3.358zm-29.671 15.605-.199-.434c-2.059-3.956-4.988-5.182-9.33-4.729l-.441.066-.544-3.309.568-.073c5.779-.676 10.297 1.371 13.032 6.607l.248.526" transform="matrix(.39386 0 0 -.436703 2933.14 1745.7)"/><path d="m0 .954-.072-.181-.079-.163c-1.021-1.727-3.418-2.561-4.469-4.868l-.097-.277-.096-.296c-.32-1.395-.797-5.442-2.15-6.281l-.097-.073-.127-.042-.12-.411-.127-.416-.097-.411-.096-.386c-1.251-10.092.622-7.531-5.061-17.985l-.375-.664-.368-.616c-3.273-5.254-9.119-10.81-14.343-14.035l-1.009-.707-1.063-.731-1.056-.821-1.709-.163c-9.657-.719-17.327 1.449-25.178 6.993l-.737.502-1.431 1.008-1.334.96-.671.459-.64.411-.616.411-.616.362-3.261 1.92-.073.049-.048.042-.078.091-.049.072-.12.23-.127.295c-1.395 3.316-2.337 5.544-3.28 9.168l-.296.888-.32.893-.374.864-.417.894-.447.869-.271.435c-2.561 3.563-6.873 13.401-6.07 17.919l.073.591.096.592.127.574.145.598.224.567-.248.78-.248.658-.247.549-.242.459-.127.182-.096.138-.121.133-.127.097-.127.066c-.567.29-.972-.35-1.232-.755l-.096-.229-.248-.525-.248-.659-.247-.737c-2.766-13.696 14.464-29.664 6.444-41.73l-.345-.616-.767-1.323-.839-1.419 7.603-4.892 1.039 9.645 24.489-13.208c1.534-2.705 1.002-6.486 2.416-9.306l.144-.248.943.049.446.018.417.048.84.115.815.139.791.133.839.114.441.049.447.042.441.024h.471l.145.115.103.115.096.114.079.115.048.133.049.121.024.108c.09.949-.84 1.891-.248 2.676l.097.139.102.114.145.115.103.133c.465.767 1.063-.139 1.576.024l.097.048.127.043.096.114c.236.206.459.816.568 1.1l.127.362.096.435c.405 1.196.327 2.518.864 3.659l.024.248.024.23-.048.483-.072.453-.025.211-.024.223v.188l.049.205c.096.308.235.429.495.592l.145.066.887.483c1.806.985 3.576 1.957 5.357 2.99l1.015.598.912.549.199.139c1.769 1.601 4.294 4.282 5.822 6.076l.567.688.544.707.543.73c7.054 10.013 10.593 22.249 13.679 33.959l.175.845.145.87.151.869" transform="matrix(.39386 0 0 -.436703 2941.05 1730.96)"/></g><path d="m2891.54 1781.75h1.87v11.67h-1.87zm20.57-46.96-.71.14.69 3.41 1.4-.3-.69-3.41" fill="#231f20"/><path d="m0 .954-4.095-.344-.446-6.196c-4.065-8.008-6.287-16.668-9.059-25.135l-.248-10.653-5.779-5.641-2.513-6.057-2.005-5.121-1.479-5.164 17.06 7.954 7.03 1.872 3.038 1.395 2.47 3.472-1.015 25.528" fill="#000080" transform="matrix(.39386 0 0 -.436703 2941.94 1769.31)"/><path d="m0 .954-3.938-.356-.434-6.438c-3.902-8.382-6.052-17.338-8.715-26.125l-.235-11.07-5.556-5.864-2.422-6.293-1.927-5.327-1.431-5.362 16.421 8.261 6.769 1.951 2.923 1.449 2.368 3.606-.973 26.53z" fill="#f9f9f9" fill-rule="nonzero" stroke="#fff" stroke-width=".49" transform="matrix(.409338 0 0 -.4202 2941.93 1769.32)"/><path d="m0 .954.048-.87c.103-1.697.097-3.394.224-5.097l.072-.845.375-.205c6.854-3.461 8.461 1.727 8.146 7.814l.025.665.392.048c.791.036 1.613.157 2.398.205l.392.043.073-1.208c.374-17.254-17.321-16.058-15.575-1.033l.072.55.344-.025c.767-.012 1.504-.03 2.277-.018h.417" fill="#000080" transform="matrix(.39386 0 0 -.436703 2929.73 1736.98)"/><path d="m0 .954c-4.65-1.28-8.37-5.043-11.13-9.252 3.744-3.297 7.561-6.112 11.299-9.403-.157 6.214-.012 12.435-.169 18.655" fill="#000080" transform="matrix(.39386 0 0 -.436703 2891.59 1783.07)"/><path d="m2910.47 1751.77-.71.28-.73.29-.76.28-.77.29c-1.7.63-3.43 1.19-5.15 1.75l-.93.31-.96.29c-5.71 1.61-3.65.92-8.02 4.88l-.92.91-.89.92-.87.91c-4.39 4.71-8.23 9.93-11.65 15.53l-.57.91-.54.92-.55.91-.53.91c-1.05 2.13-2.97 4.17-2.82 6.8l.01.19.02.18.03.2c.08.44.18.78.34 1.19l.1.21.1.22.1.2.12.22.13.21 2.26 1.62 2.29 1.63 2.3 1.63 2.3 1.63 2.3 1.64 2.3 1.63 2.29 1.62 2.26 1.62-.07-.44-.05-.39-.05-.35-.04-.34-.04-.33-.05-.36-.06-.39-.07-.44-.84-.6-.86-.6-.86-.64-.87-.64-1.75-1.32-1.76-1.33-1.77-1.34-1.75-1.32-.86-.65-.87-.63c-.82-.72-3.39-2.08-3.74-3.38l-.06-.18-.06-.4c0-3.04 6.46-12.89 8.31-15.27l.46-.61.46-.61.47-.6.48-.6.94-1.17.95-1.17 1.93-2.3 1.93-2.27.21-.13.22-.12.2-.1.21-.09.19-.07.19-.05.18-.04.19-.03.17-.01.18.01.16.01c.74.12 1.2.5 1.73 1.04l.13.14.24.31.25.32.23.35.22.35.27 1.28.22 1.2.15 1.12.09 1.04.03.97-.01.89-.07.84-.12.78-.18.72-.21.68-.26.63-.31.6-.35.56c-2.16 3.05-6.07 4.97-8.8 7.47l-.74.65-.75.7-.75.75-.76.8.67.78.67.76c2.07 2.35 4.32 4.54 6.7 6.5l.67.53.66.51.78.69.67.48.21-.05.21-.07.21-.08.2-.09.42-.22.38-.24.42-.24.41-.21.14-.28.21-.08.21-.07.02-.1-.56-.48c-3.18-2.32-7.15-4.17-9.69-7.4l-.25-.31.11-.22.11-.21.11-.2.1-.19c.41-.67.91-1.27 1.51-1.73l.28-.2.28-.19.29-.17.3-.16.29-.14.3-.13.31-.13.3-.11.96-1.03c1.05-1.17 2.07-2.38 3.15-3.53l.35-.39.36-.38.36-.36.36-.36c2.88-1.95 2.52-8.18 2.15-11.37l-.06-.34-.05-.32-.07-.29-.08-.26-.08-.23c-.81-1.09-1.78-2.39-2.28-3.71l-.08-.23-.06-.22c-.24-1.09.09-1.73 1-2.18l.25-.1.26-.08.3-.08c19.24-6.02 7.6-3.3 24.42-.14l.43.07.44.05.43.06-.04-.36c-.06-.51-.15-1.01-.22-1.52l-.04-.36h-.4c-4.34-.18-8.4-1.84-12.18-4.14l-.45-.29" fill="#000080"/></g><path d="m2226.03 2207.63-1.2-2.84-1.23 2.84zm.2.45h-2.84l-.34.81c-.11.26-.16.48-.16.66 0 .23.08.4.27.51.1.07.37.11.79.15v.22h-2.68v-.22c.29-.05.53-.17.71-.37.19-.2.42-.62.69-1.25l2.88-6.58h.11l2.9 6.77c.27.64.5 1.04.68 1.21.14.12.33.2.57.22v.22h-3.89v-.22h.16c.31 0 .53-.05.66-.14.09-.06.13-.16.13-.28 0-.07-.01-.15-.04-.22 0-.04-.06-.19-.17-.46zm-4.07-5.9v.22c-.27.04-.47.12-.62.24-.19.17-.49.64-.93 1.39l-1.74 2.99v2c0 .42.01.69.06.79.04.11.13.2.26.28s.3.12.51.12h.45v.22h-4.51v-.22h.42c.24 0 .43-.05.56-.13.1-.06.19-.16.25-.3.04-.09.06-.35.06-.76v-1.66l-1.89-3.53c-.38-.7-.64-1.11-.8-1.23-.15-.13-.35-.19-.61-.2v-.22h3.85v.22h-.17c-.23 0-.4.04-.49.11s-.14.14-.14.22c0 .14.16.51.48 1.1l1.45 2.73 1.45-2.49c.35-.61.54-1.01.54-1.21 0-.11-.05-.2-.16-.27-.13-.1-.38-.17-.74-.19v-.22zm-11.44 5.45-1.2-2.84-1.23 2.84zm.2.45h-2.84l-.34.81c-.11.26-.16.48-.16.66 0 .23.09.4.27.51.1.07.37.11.79.15v.22h-2.68v-.22c.29-.05.53-.17.71-.37.19-.2.42-.62.69-1.25l2.88-6.58h.11l2.9 6.77c.28.64.5 1.04.68 1.21.14.12.33.19.57.22v.22h-3.89v-.22h.16c.31 0 .53-.05.66-.14.09-.06.13-.16.13-.28 0-.07-.01-.15-.04-.22 0-.04-.06-.19-.17-.46zm-9.4-5.68v-.22h4.28v.22h-.26c-.24 0-.43.05-.57.13-.1.06-.18.15-.24.29-.04.1-.07.36-.07.77v4.04c0 .79-.07 1.37-.23 1.73-.15.36-.42.66-.82.9-.39.24-.87.36-1.42.36-.67 0-1.22-.18-1.64-.55-.42-.36-.62-.77-.62-1.21 0-.28.08-.51.25-.69s.38-.27.62-.27c.25 0 .45.08.61.24.17.16.25.35.25.59 0 .11-.01.21-.04.29-.02.05-.08.15-.19.31-.11.17-.16.28-.16.35 0 .11.05.2.15.27.15.12.35.18.59.18.17 0 .31-.05.42-.14s.19-.23.23-.41c.05-.19.07-.72.07-1.58v-4.41c0-.42-.02-.69-.07-.79-.04-.11-.13-.2-.26-.28-.14-.08-.31-.12-.54-.12zm-2 7.81v.22h-4.21v-.22h.27c.23 0 .42-.05.56-.13.11-.06.19-.16.24-.3.04-.09.07-.35.07-.76v-5.43c0-.42-.03-.69-.07-.79-.04-.11-.13-.2-.26-.28s-.32-.12-.54-.12h-.27v-.22h4.21v.22h-.27c-.23 0-.42.05-.56.13-.11.06-.19.15-.25.29-.04.1-.06.36-.06.77v5.43c0 .42.02.68.07.79.04.11.13.2.26.28.14.08.32.12.54.12zm-4.57-8.03v.22c-.3.05-.56.21-.79.48-.16.21-.41.68-.74 1.43l-2.77 6.31h-.19l-2.76-6.56c-.33-.79-.56-1.26-.67-1.4-.11-.13-.32-.22-.63-.26v-.22h3.85v.22h-.13c-.35 0-.59.05-.71.14-.09.06-.14.15-.14.26 0 .08.02.16.05.26s.14.37.32.8l1.71 4.11 1.59-3.65c.19-.45.31-.74.35-.89.05-.15.07-.28.07-.39 0-.12-.03-.23-.1-.32-.06-.09-.15-.16-.27-.21-.17-.07-.4-.11-.68-.11v-.22" fill="#000080"/><g fill="#000080" transform="matrix(.118191 0 0 -.131048 2241.61 2192.41)"><path d="m3259.74 2107.41h2.14v15.35l5.38 2.51v-17.86h8.38l-2.39-3.34h-7.49l-.27-.39c-1.64-2.83-1.11-4.68 1.71-5.91l.55-.24.58-.18c6.16-1.7 14.12 1.85 19.32 5.33l1.13.74 1.81-.62-1.32-1.04-1.28-.98c-6.26-4.68-17.12-9.17-24.61-5.88l-.37.15-.37.17c-3.85 2.27-4.26 5.31-.61 8.25l.37.3.4.3h-5.44z" transform="matrix(3.35177 0 0 -3.02294 -11406.8 6399.51)"/><path d="m0 .954h-1.842c-36.923 4.56-4.288 29.58 28.795 12.519l4.094-1.697-2.047-1.256c-8.038-4.801-16.088-8.135-25.413-9.391l-1.848-.084zm-29 12.072v-.809l.103-.888c1.993-7.808 13.606-13.866 20.49-16.456l1.438-.447 1.54-.447c10.357-3.376 19.186-1.933 29.103 2.059l3.176 1.432 3.177 1.606v-10.816l18.033-7.597v53.996h28.076l-7.996 10.103h-103.391l7.99-10.103h57.288v-17.164l-1.848 1.341c-14.488 12.024-50.904 15.871-57.076-4.203l-.103-.803" transform="translate(-405.977 -1.87817)"/><path d="m0 .954 2.663-3.4 2.664-3.219c10.828-12.169 28.444-25.316 45.807-23.691l1.437.265 1.329.363c13.787 4.233 10.182 14.059 1.54 21.541l-1.13.9-1.129.894h25.008v-26.023l18.033-7.597v54.002h27.973l-7.989 10.104h-119.383l7.996-10.104h73.37v-8.938h-43.041l-3.074-2.24 1.643-.804 1.534-.803 1.437-.803c3.478-2.265 5.743-4.294 7.99-7.778l.513-1.075.411-1.075c.604-2.362 1.038-4.294-.822-6.082l-1.54-1.069c-11.057-4.686-26.934 6.021-33.813 14.216l-1.739 2.144-1.643 2.235" transform="translate(-341.726 17.7974)"/><path d="m1.54.954h-2.977l-1.329.091-1.335.09c-3.2.302-7.301 1.419-10.043 3.129l-.821.531-.815.538c-2.253 1.721-1.764 3.4.718 3.846l2.458.272 2.458.35 2.253.447 2.156.453c3.901.785 9.723 2.247 12.809 4.916l.513.622.199.272.103.356.109.272v.803l-.212.538-.199.537-.308.622-.821 1.432-1.232 1.521-1.534 1.788-1.945 1.969-2.258 2.144-2.458 2.325h31.047v-21.639l-1.945-.984c-6.981-3.587-15.212-6.401-23.057-7.15zm-33.614 15.829.616-1.432c10.713-21.879 34.206-31.518 56.871-20.835l2.663 1.341v-11.444l18.039-7.597v54.002h27.973l-7.995 10.097h-101.754l7.996-10.097h15.677c11.988-8.654-9.022-14.078-15.273-13.86l-2.355-.091" transform="translate(-197.445 1.96874)"/><path d="m-130.941 32.787h6.764v-46.405l18.033-7.598v54.003h28.058l-7.972 10.097h-52.982"/></g><path d="m2125.12 2163.48h280.02" style="fill:none;stroke:#666;stroke-width:1.65;stroke-linecap:round;stroke-linejoin:round;stroke-miterlimit:4"/><path d="m2265.88 2173.26v50.04" style="fill:none;stroke:#666;stroke-width:1.65;stroke-linecap:round;stroke-linejoin:round;stroke-miterlimit:4"/></g></svg>